<?xml version="1.0" encoding="UTF-8"?>
<svg fill="none" version="1.1" viewBox="0 0 1024 1024" xmlns="http://www.w3.org/2000/svg">
   <path d="m924 623.85c0 11.459 0 22.918-0.0644 34.384-0.0563 9.6562-0.16899 19.304-0.42649 28.953-0.57132 21.026-1.8105 42.238-5.5443 63.039-3.7901 21.099-9.9781 40.733-19.739 59.901-9.5919 18.838-22.121 36.082-37.072 51.025s-32.187 27.48-51.025 37.072c-19.168 9.7528-38.802 15.949-59.901 19.739-20.793 3.7418-42.005 4.973-63.039 5.5443-9.6482 0.26555-19.304 0.37016-28.953 0.42649-11.459 0.0724-22.917 0.0644-34.384 0.0644h-223.7c-11.459 0-22.917 0-34.384-0.0644-9.6562-0.0563-19.304-0.16899-28.953-0.42649-21.026-0.57132-42.238-1.8105-63.039-5.5443-21.099-3.7901-40.733-9.9781-59.901-19.739-18.838-9.5919-36.082-22.121-51.025-37.072s-27.48-32.187-37.072-51.025c-9.7528-19.168-15.949-38.802-19.739-59.901-3.7418-20.793-4.973-42.005-5.5443-63.039-0.26555-9.6482-0.37016-19.304-0.42649-28.953-0.07242-11.459-0.0644-22.917-0.0644-34.384v-223.7c0-11.459 0-22.917 0.0644-34.384 0.0563-9.6562 0.16899-19.304 0.42649-28.953 0.57132-21.026 1.8105-42.238 5.5443-63.039 3.79-21.099 9.9781-40.733 19.739-59.901 9.5919-18.838 22.121-36.082 37.072-51.025 14.951-14.943 32.187-27.48 51.025-37.072 19.168-9.7528 38.802-15.949 59.901-19.739 20.793-3.7418 42.005-4.973 63.039-5.5443 9.6482-0.26555 19.304-0.37016 28.953-0.42649 11.459-0.07242 22.918-0.0644 34.384-0.0644h223.7c11.459 0 22.918 0 34.384 0.0644 9.6562 0.0563 19.304 0.16899 28.953 0.42649 21.026 0.57132 42.238 1.8105 63.039 5.5443 21.099 3.79 40.733 9.9781 59.901 19.739 18.838 9.5919 36.082 22.121 51.025 37.072 14.943 14.951 27.48 32.187 37.072 51.025 9.7528 19.168 15.949 38.802 19.739 59.901 3.7418 20.793 4.973 42.005 5.5443 63.039 0.26555 9.6482 0.37016 19.304 0.42649 28.953 0.0724 11.459 0.0644 22.918 0.0644 34.384z" fill="#fff" stroke-width="0"/>
</svg>
