<?xml version="1.0" encoding="UTF-8"?>
<svg version="1.1" viewBox="0 0 1024 1024" xmlns="http://www.w3.org/2000/svg">
   <path d="m328.46 101.11c-40.789 5.3588-79.623 8.1587-117.31 27.011-14.841 7.4249-28.749 16.885-41.216 27.827-81.704 71.708-68.693 192.84-68.693 290.48v120.54c0 92.297-13.609 203.47 49.263 280.2 60.713 74.104 156.79 76.131 244.53 76.131h179.66c53.638 0 108.53 3.3191 161.69-4.5171 22.595-3.3297 45.663-8.6102 66.58-18.018 17.541-7.8891 33.841-17.709 48.614-30.074 79.224-66.315 71.864-176.87 71.864-269.89v-166.01c0-83.642 8.6807-177.57-42.724-249.54-60.69-84.968-165.78-84.59-259.53-84.59h-240.95c-16.94 0-34.987-1.7584-51.784 0.44833z" fill="#fff"/>
</svg>
